<svg width="20" height="20" viewBox="0 0 20 20" fill="none" xmlns="http://www.w3.org/2000/svg"><path d="M17.0832 9.74954C17.0832 10.9475 16.7721 12.1249 16.1803 13.1665C15.5885 14.2081 14.7364 15.0781 13.7073 15.6913C12.6782 16.3046 11.5075 16.6401 10.3098 16.6649C9.11208 16.6897 7.92847 16.403 6.87487 15.8329L3.3332 16.7495L4.26653 13.3162C3.70806 12.4033 3.36903 11.3733 3.27612 10.3072C3.18321 9.24104 3.33895 8.16789 3.7311 7.17216C4.12325 6.17643 4.7411 5.28528 5.53605 4.56881C6.33099 3.85235 7.28134 3.33012 8.31234 3.04321C9.34333 2.75631 10.4268 2.71255 11.4776 2.91538C12.5284 3.11821 13.5177 3.5621 14.3679 4.21212C15.218 4.86215 15.9057 5.70057 16.3769 6.66144C16.8481 7.6223 17.0898 8.67939 17.0832 9.74954Z" stroke="white" stroke-width="1.5" stroke-linecap="round"/><path d="M6.95782 6.375C7.10782 6.01667 7.27449 6.00833 7.54115 6H8.04115C8.19115 6 8.33282 6.05 8.41615 6.25L9.16615 7.98333C9.24948 8.18333 9.21615 8.34167 9.09948 8.5L8.54115 9.18333C8.42448 9.325 8.39948 9.45833 8.49115 9.625C9.00782 10.5917 9.77449 11.3583 10.7412 11.875C10.9078 11.9583 11.0412 11.9417 11.1828 11.825L11.8662 11.2583C12.0328 11.125 12.1995 11.0917 12.3912 11.1917L14.0995 11.9917C14.2995 12.0833 14.3495 12.225 14.3495 12.3833V12.8C14.3495 13.1167 14.1995 13.5917 13.7662 13.9C13.3245 14.2167 12.5828 14.4167 11.7662 14.2167C10.5578 13.9167 9.11615 13.1333 7.93282 11.95C6.74949 10.7667 5.97449 9.325 5.66615 8.11667C5.45782 7.3 5.70782 6.675 6.04115 6.375C6.37448 6.075 6.74115 6 6.95782 6V6.375Z" fill="white"/></svg>